<svg xmlns="http://www.w3.org/2000/svg" width="116" height="116" viewBox="0 0 116 116">
    <g fill="none" fill-rule="evenodd">
        <path fill="#F7F7F7" d="M0 0h116v116H0z"/>
        <path stroke="#C4984F" stroke-width="2" d="M32.083 57.57v-4.266M43.736 53.304H27.11"/>
        <path fill="#B38841" d="M30.662 84.887h13.074V57.025H30.662z"/>
        <path fill="#C4984F" d="M42.524 84.887h42.67V33.465h-42.67z"/>
        <path fill="#FFF" d="M46.722 44.283h5.36V38.92h-5.36zM46.722 53.544h5.36V48.18h-5.36zM56.527 44.283h5.362V38.92h-5.362zM56.527 53.544h5.362V48.18h-5.362zM66.333 44.283h5.361V38.92h-5.36zM66.333 53.544h5.361V48.18h-5.36zM76.139 44.283H81.5V38.92H76.14zM76.139 53.544H81.5V48.18H76.14zM46.722 62.805h5.36v-5.363h-5.36zM56.527 62.805h5.362v-5.363h-5.362zM66.333 62.805h5.361v-5.363h-5.36zM76.139 62.805H81.5v-5.363H76.14zM46.722 72.066h5.36v-5.363h-5.36zM56.527 72.066h5.362v-5.363h-5.362zM56.527 85.14h15.254v-9.26H56.527z"/>
        <path stroke="#B38841" stroke-width="2" d="M24.386 85.358H90.96"/>
        <path fill="#FFF" d="M66.333 72.066h5.361v-5.363h-5.36zM76.139 72.066H81.5v-5.363H76.14zM46.722 81.327h5.36v-5.363h-5.36zM76.139 81.327H81.5v-5.363H76.14z"/>
        <path stroke="#C4984F" stroke-width="2" d="M44.45 34.316v-4.265M83.004 34.316v-4.265M88.145 30.05H39.768"/>
    </g>
</svg>
