<svg xmlns="http://www.w3.org/2000/svg" width="116" height="116" viewBox="0 0 116 116">
    <g fill="none" fill-rule="evenodd">
        <path fill="#F7F7F7" d="M0 0h116v116H0z"/>
        <path fill="#B38841" d="M23.727 84.1h10.546V48.115H23.727zM79.75 84.1h11.205V48.115H79.75z"/>
        <path fill="#C4984F" d="M34.273 84.1H79.75V56.13H34.273z"/>
        <path fill="#B38841" d="M38.811 84.1H76.14V61.239H38.81z"/>
        <path fill="#FFF" d="M44.903 69.128h3.475v-3.475h-3.475zM52.127 69.128h3.474v-3.475h-3.474zM59.351 69.128h3.475v-3.475H59.35zM66.576 69.128h3.475v-3.475h-3.475zM44.903 75.493h3.475v-3.475h-3.475zM52.127 75.493h3.474v-3.475h-3.474zM59.351 75.493h3.475v-3.475H59.35zM66.576 75.493h3.475v-3.475h-3.475zM44.903 81.858h3.475v-3.475h-3.475zM52.127 81.858h3.474v-3.475h-3.474zM59.351 81.858h3.475v-3.475H59.35zM66.576 81.858h3.475v-3.475h-3.475z"/>
        <path fill="#262626" d="M27.12 80.121V52.654 80.12z"/>
        <path stroke="#FFF" stroke-width="2" d="M30.628 52.654v27.467M26.867 52.654v27.467M87.311 52.654v27.467M83.549 52.654v27.467"/>
        <path stroke="#B38841" stroke-width="2" d="M17.136 83.881h82.1"/>
    </g>
</svg>
