<svg xmlns="http://www.w3.org/2000/svg" width="13" height="22" viewBox="0 0 13 22">
    <path fill="#C4984F" fill-rule="evenodd" d="M4.421 22h4.1v-4.258h-4.1V22zm.908-7.682c0-1.131.195-2.088.586-2.87.39-.782.956-1.636 1.697-2.561.566-.72.987-1.328 1.26-1.822.273-.493.41-1.048.41-1.664 0-.7-.234-1.25-.703-1.652-.468-.401-1.122-.602-1.962-.602-.839 0-1.723.196-2.65.587-.927.39-1.84.947-2.737 1.667L0 2.5C.8 1.737 1.834 1.131 3.103.678A11.312 11.312 0 0 1 6.911 0c1.19 0 2.244.212 3.161.632.918.422 1.635 1.019 2.153 1.79.517.771.775 1.651.775 2.64 0 1.069-.244 2.003-.731 2.806-.488.803-1.192 1.687-2.108 2.654-.801.905-1.402 1.646-1.802 2.222a4.433 4.433 0 0 0-.747 1.973l-.116.834H5.329v-1.233z"/>
</svg>
